G75*
G70*
%OFA0B0*%
%FSLAX24Y24*%
%IPPOS*%
%LPD*%
%AMOC8*
5,1,8,0,0,1.08239X$1,22.5*
%
%ADD10C,0.0030*%
%ADD11C,0.0060*%
D10*
X006451Y011756D02*
X006698Y011756D01*
X006574Y011756D02*
X006574Y012126D01*
X006698Y012003D01*
X006819Y012065D02*
X006881Y012126D01*
X007066Y012126D01*
X007066Y011756D01*
X006881Y011756D01*
X006819Y011818D01*
X006819Y012065D01*
X002420Y013573D02*
X002420Y013696D01*
X002420Y013635D02*
X002111Y013635D01*
X002049Y013573D01*
X002049Y013511D01*
X002111Y013449D01*
X002049Y013818D02*
X002049Y014065D01*
X002049Y013941D02*
X002420Y013941D01*
X002296Y013818D01*
X011619Y013758D02*
X011866Y014005D01*
X011928Y014005D01*
X011990Y013943D01*
X011990Y013819D01*
X011928Y013758D01*
X011990Y013636D02*
X011990Y013513D01*
X011990Y013575D02*
X011681Y013575D01*
X011619Y013513D01*
X011619Y013451D01*
X011681Y013389D01*
X011619Y013758D02*
X011619Y014005D01*
X011691Y008305D02*
X011629Y008243D01*
X011629Y008119D01*
X011691Y008058D01*
X011815Y008181D02*
X011815Y008243D01*
X011753Y008305D01*
X011691Y008305D01*
X011815Y008243D02*
X011876Y008305D01*
X011938Y008305D01*
X012000Y008243D01*
X012000Y008119D01*
X011938Y008058D01*
X012000Y007936D02*
X012000Y007813D01*
X012000Y007875D02*
X011691Y007875D01*
X011629Y007813D01*
X011629Y007751D01*
X011691Y007689D01*
D11*
X007094Y010891D02*
X006594Y010641D01*
X006594Y011141D01*
X007094Y010891D01*
X007094Y011141D02*
X007094Y010641D01*
M02*
