%
M48
M72
T01C0.0200
T02C0.0315
T03C0.0394
T04C0.2200
%
T01
X4844Y6241
X5244Y6541
X6044Y6541
X6744Y6541
X7744Y6941
X8944Y7141
X9344Y6041
X7644Y4941
X7144Y4441
X6944Y4941
X6044Y4241
X5544Y2341
X8244Y3641
X9044Y2341
X8644Y2041
X6144Y9941
X9144Y12841
X9544Y14541
T02
X8437Y11903
X7683Y11875
X10817Y8862
X11372Y9420
T03
X2917Y1990
X3705Y1990
X4492Y1990
X10726Y2053
X10726Y1265
X10726Y2840
X8229Y10891
X4921Y10891
T04
X7094Y8641
M30
