G75*
G70*
%OFA0B0*%
%FSLAX24Y24*%
%IPPOS*%
%LPD*%
%AMOC8*
5,1,8,0,0,1.08239X$1,22.5*
%
%ADD10C,0.0080*%
%ADD11C,0.0030*%
%ADD12C,0.0160*%
%ADD13C,0.0020*%
%ADD14C,0.0060*%
D10*
X002326Y015899D02*
X002172Y016053D01*
X002172Y016666D01*
X002326Y016820D01*
X002633Y016820D01*
X002786Y016666D01*
X003093Y016820D02*
X003093Y016053D01*
X003247Y015899D01*
X003554Y015899D01*
X003707Y016053D01*
X003707Y016820D01*
X004014Y016820D02*
X004014Y015899D01*
X004474Y015899D01*
X004628Y016053D01*
X004628Y016360D01*
X004474Y016513D01*
X004014Y016513D01*
X004935Y016513D02*
X005088Y016513D01*
X005088Y015899D01*
X004935Y015899D02*
X005242Y015899D01*
X005549Y016053D02*
X005702Y015899D01*
X006009Y015899D01*
X006162Y016053D01*
X006162Y016666D02*
X006009Y016820D01*
X005702Y016820D01*
X005549Y016666D01*
X005549Y016053D01*
X005088Y016820D02*
X005088Y016973D01*
X002786Y016053D02*
X002633Y015899D01*
X002326Y015899D01*
D11*
X002383Y000506D02*
X002136Y000506D01*
X002136Y000876D01*
X002504Y000876D02*
X002504Y000506D01*
X002751Y000506D01*
X002873Y000506D02*
X003058Y000506D01*
X003120Y000568D01*
X003120Y000815D01*
X003058Y000876D01*
X002873Y000876D01*
X002873Y000506D01*
X002628Y000691D02*
X002504Y000691D01*
X002504Y000876D02*
X002751Y000876D01*
X003241Y000815D02*
X003303Y000876D01*
X003426Y000876D01*
X003488Y000815D01*
X003488Y000753D01*
X003241Y000506D01*
X003488Y000506D01*
X004623Y000626D02*
X004623Y000256D01*
X004623Y000380D02*
X004808Y000380D01*
X004870Y000441D01*
X004870Y000565D01*
X004808Y000626D01*
X004623Y000626D01*
X004746Y000380D02*
X004870Y000256D01*
X004991Y000318D02*
X005053Y000256D01*
X005176Y000256D01*
X005238Y000318D01*
X005238Y000380D01*
X005176Y000441D01*
X005115Y000441D01*
X005176Y000441D02*
X005238Y000503D01*
X005238Y000565D01*
X005176Y000626D01*
X005053Y000626D01*
X004991Y000565D01*
X006123Y000506D02*
X006123Y000876D01*
X006308Y000876D01*
X006370Y000815D01*
X006370Y000691D01*
X006308Y000630D01*
X006123Y000630D01*
X006246Y000630D02*
X006370Y000506D01*
X006491Y000506D02*
X006738Y000753D01*
X006738Y000815D01*
X006676Y000876D01*
X006553Y000876D01*
X006491Y000815D01*
X006491Y000506D02*
X006738Y000506D01*
X003077Y002799D02*
X002954Y002676D01*
X002831Y002676D01*
X002707Y002799D01*
X002831Y002921D02*
X003077Y002921D01*
X002954Y002921D02*
X002831Y003045D01*
X002831Y003106D01*
X002892Y003228D02*
X002831Y003290D01*
X002831Y003413D01*
X002892Y003475D01*
X002954Y003475D01*
X002954Y003228D01*
X003016Y003228D02*
X002892Y003228D01*
X003016Y003228D02*
X003077Y003290D01*
X003077Y003413D01*
X003016Y003596D02*
X002892Y003596D01*
X002831Y003658D01*
X002831Y003843D01*
X002707Y003843D02*
X003077Y003843D01*
X003077Y003658D01*
X003016Y003596D01*
X003077Y003965D02*
X002954Y004088D01*
X002831Y004088D01*
X002707Y003965D01*
X002459Y003800D02*
X002212Y003800D01*
X002212Y003924D02*
X002212Y003986D01*
X002212Y003924D02*
X002336Y003800D01*
X002398Y003679D02*
X002274Y003679D01*
X002212Y003617D01*
X002212Y003494D01*
X002274Y003432D01*
X002398Y003432D01*
X002459Y003494D01*
X002459Y003617D01*
X002398Y003679D01*
X002459Y003311D02*
X002274Y003311D01*
X002212Y003249D01*
X002212Y003125D01*
X002274Y003064D01*
X002336Y002942D02*
X002274Y002881D01*
X002274Y002757D01*
X002212Y002695D01*
X002151Y002695D01*
X002089Y002757D01*
X002089Y002881D01*
X002151Y002942D01*
X002089Y003064D02*
X002459Y003064D01*
X002398Y002942D02*
X002459Y002881D01*
X002459Y002757D01*
X002398Y002695D01*
X002398Y002942D02*
X002336Y002942D01*
X002212Y004107D02*
X002212Y004231D01*
X002151Y004169D02*
X002398Y004169D01*
X002459Y004231D01*
X002479Y004419D02*
X002479Y004605D01*
X002418Y004666D01*
X002171Y004666D01*
X002109Y004605D01*
X002109Y004419D01*
X002479Y004419D01*
X002479Y004788D02*
X002233Y005035D01*
X002171Y005035D01*
X002109Y004973D01*
X002109Y004849D01*
X002171Y004788D01*
X002479Y004788D02*
X002479Y005035D01*
X002358Y005596D02*
X002111Y005596D01*
X002049Y005658D01*
X002049Y005781D01*
X002111Y005843D01*
X002173Y005964D02*
X002049Y006088D01*
X002419Y006088D01*
X002419Y006211D02*
X002419Y005964D01*
X002358Y005843D02*
X002419Y005781D01*
X002419Y005658D01*
X002358Y005596D01*
X003301Y008335D02*
X003301Y008705D01*
X003425Y008582D01*
X003548Y008705D01*
X003548Y008335D01*
X003669Y008397D02*
X003669Y008643D01*
X003731Y008705D01*
X003855Y008705D01*
X003916Y008643D01*
X003916Y008397D01*
X003855Y008335D01*
X003731Y008335D01*
X003669Y008397D01*
X004038Y008397D02*
X004099Y008335D01*
X004223Y008335D01*
X004285Y008397D01*
X004285Y008458D01*
X004223Y008520D01*
X004099Y008520D01*
X004038Y008582D01*
X004038Y008643D01*
X004099Y008705D01*
X004223Y008705D01*
X004285Y008643D01*
X004406Y008705D02*
X004406Y008335D01*
X004406Y008520D02*
X004529Y008520D01*
X004406Y008705D02*
X004653Y008705D01*
X004774Y008705D02*
X004774Y008335D01*
X005021Y008335D01*
X004898Y008520D02*
X004774Y008520D01*
X004774Y008705D02*
X005021Y008705D01*
X005143Y008705D02*
X005389Y008705D01*
X005266Y008705D02*
X005266Y008335D01*
X010341Y006820D02*
X010465Y006943D01*
X010588Y006943D01*
X010712Y006820D01*
X010712Y006698D02*
X010527Y006698D01*
X010465Y006637D01*
X010465Y006452D01*
X010712Y006452D01*
X010465Y006330D02*
X010465Y006268D01*
X010588Y006145D01*
X010465Y006145D02*
X010712Y006145D01*
X010712Y006023D02*
X010712Y005838D01*
X010650Y005776D01*
X010527Y005776D01*
X010465Y005838D01*
X010465Y006023D01*
X010773Y006023D01*
X010835Y005962D01*
X010835Y005900D01*
X010712Y005654D02*
X010588Y005531D01*
X010465Y005531D01*
X010341Y005654D01*
X010465Y005041D02*
X010465Y004856D01*
X010527Y004794D01*
X010650Y004794D01*
X010712Y004856D01*
X010712Y005041D01*
X010773Y005041D02*
X010465Y005041D01*
X010527Y004673D02*
X010465Y004611D01*
X010465Y004426D01*
X010712Y004426D01*
X010650Y004305D02*
X010527Y004305D01*
X010465Y004243D01*
X010465Y004119D01*
X010527Y004058D01*
X010650Y004058D01*
X010712Y004119D01*
X010712Y004243D01*
X010650Y004305D01*
X010712Y004673D02*
X010527Y004673D01*
X010835Y004918D02*
X010835Y004979D01*
X010773Y005041D01*
X010712Y003936D02*
X010712Y003689D01*
X010341Y003689D01*
X011359Y002411D02*
X011729Y002411D01*
X011729Y002288D02*
X011729Y002535D01*
X011483Y002288D02*
X011359Y002411D01*
X011421Y002166D02*
X011359Y002105D01*
X011359Y001919D01*
X011729Y001919D01*
X011729Y002105D01*
X011668Y002166D01*
X011421Y002166D01*
X011359Y001798D02*
X011359Y001551D01*
X011729Y001551D01*
X011729Y001798D01*
X011544Y001675D02*
X011544Y001551D01*
X011729Y001430D02*
X011729Y001183D01*
X011359Y001183D01*
X011799Y003746D02*
X011799Y003931D01*
X011861Y003993D01*
X011984Y003993D01*
X012046Y003931D01*
X012046Y003746D01*
X012169Y003746D02*
X011799Y003746D01*
X012046Y003870D02*
X012169Y003993D01*
X012169Y004114D02*
X012169Y004361D01*
X012169Y004238D02*
X011799Y004238D01*
X011923Y004114D01*
X010913Y009406D02*
X010789Y009406D01*
X010728Y009468D01*
X010851Y009591D02*
X010913Y009591D01*
X010975Y009530D01*
X010975Y009468D01*
X010913Y009406D01*
X010913Y009591D02*
X010975Y009653D01*
X010975Y009715D01*
X010913Y009776D01*
X010789Y009776D01*
X010728Y009715D01*
X010606Y009776D02*
X010359Y009776D01*
X010483Y009776D02*
X010483Y009406D01*
D12*
X005977Y004891D02*
X005979Y004912D01*
X005984Y004932D01*
X005994Y004951D01*
X006006Y004968D01*
X006021Y004982D01*
X006039Y004994D01*
X006058Y005002D01*
X006078Y005007D01*
X006099Y005008D01*
X006120Y005005D01*
X006140Y004999D01*
X006158Y004989D01*
X006175Y004976D01*
X006189Y004960D01*
X006199Y004942D01*
X006207Y004922D01*
X006211Y004901D01*
X006211Y004881D01*
X006207Y004860D01*
X006199Y004840D01*
X006189Y004822D01*
X006175Y004806D01*
X006158Y004793D01*
X006140Y004783D01*
X006120Y004777D01*
X006099Y004774D01*
X006078Y004775D01*
X006058Y004780D01*
X006039Y004788D01*
X006021Y004800D01*
X006006Y004814D01*
X005994Y004831D01*
X005984Y004850D01*
X005979Y004870D01*
X005977Y004891D01*
D13*
X010604Y016151D02*
X010604Y016181D01*
X010724Y016301D01*
X010724Y016331D01*
X010604Y016331D01*
X010789Y016151D02*
X010909Y016331D01*
X010973Y016301D02*
X011003Y016331D01*
X011063Y016331D01*
X011093Y016301D01*
X011093Y016271D01*
X010973Y016151D01*
X011093Y016151D01*
X011157Y016151D02*
X011277Y016331D01*
X011341Y016301D02*
X011371Y016331D01*
X011431Y016331D01*
X011461Y016301D01*
X011461Y016271D01*
X011341Y016151D01*
X011461Y016151D01*
X011525Y016181D02*
X011525Y016301D01*
X011555Y016331D01*
X011615Y016331D01*
X011645Y016301D01*
X011525Y016181D01*
X011555Y016151D01*
X011615Y016151D01*
X011645Y016181D01*
X011645Y016301D01*
X011709Y016301D02*
X011739Y016331D01*
X011799Y016331D01*
X011829Y016301D01*
X011709Y016181D01*
X011739Y016151D01*
X011799Y016151D01*
X011829Y016181D01*
X011829Y016301D01*
X011893Y016301D02*
X011893Y016271D01*
X011923Y016241D01*
X012013Y016241D01*
X012013Y016181D02*
X012013Y016301D01*
X011983Y016331D01*
X011923Y016331D01*
X011893Y016301D01*
X011893Y016181D02*
X011923Y016151D01*
X011983Y016151D01*
X012013Y016181D01*
X011709Y016181D02*
X011709Y016301D01*
X011706Y016651D02*
X011586Y016651D01*
X011706Y016771D01*
X011706Y016801D01*
X011676Y016831D01*
X011616Y016831D01*
X011586Y016801D01*
X011522Y016801D02*
X011402Y016681D01*
X011432Y016651D01*
X011492Y016651D01*
X011522Y016681D01*
X011522Y016801D01*
X011492Y016831D01*
X011432Y016831D01*
X011402Y016801D01*
X011402Y016681D01*
X011340Y016681D02*
X011340Y016651D01*
X011310Y016651D01*
X011310Y016681D01*
X011340Y016681D01*
X011062Y016771D02*
X011002Y016651D01*
X010942Y016771D01*
X010878Y016741D02*
X010878Y016711D01*
X010758Y016711D01*
X010758Y016681D02*
X010758Y016741D01*
X010788Y016771D01*
X010848Y016771D01*
X010878Y016741D01*
X010848Y016651D02*
X010788Y016651D01*
X010758Y016681D01*
X010694Y016771D02*
X010664Y016771D01*
X010604Y016711D01*
X010604Y016651D02*
X010604Y016771D01*
D14*
X003894Y005051D02*
X003894Y004551D01*
X003894Y004801D02*
X003394Y005051D01*
X003394Y004551D01*
X003894Y004801D01*
M02*
