G75*
G70*
%OFA0B0*%
%FSLAX24Y24*%
%IPPOS*%
%LPD*%
%AMOC8*
5,1,8,0,0,1.08239X$1,22.5*
%
%ADD10C,0.0000*%
%ADD11R,0.0500X0.0220*%
%ADD12R,0.0220X0.0500*%
%ADD13C,0.0634*%
%ADD14R,0.0315X0.0354*%
%ADD15R,0.0433X0.0394*%
%ADD16R,0.0472X0.0315*%
%ADD17R,0.0315X0.0472*%
%ADD18C,0.0555*%
%ADD19C,0.0634*%
%ADD20C,0.0111*%
%ADD21R,0.0591X0.0827*%
%ADD22C,0.0080*%
%ADD23C,0.0400*%
D10*
X001844Y000141D02*
X012344Y000141D01*
X012344Y017141D01*
X001844Y017141D01*
X001844Y000141D01*
X005994Y008641D02*
X005996Y008707D01*
X006002Y008772D01*
X006012Y008837D01*
X006025Y008902D01*
X006043Y008965D01*
X006064Y009028D01*
X006089Y009088D01*
X006118Y009148D01*
X006150Y009205D01*
X006185Y009261D01*
X006224Y009314D01*
X006266Y009365D01*
X006310Y009413D01*
X006358Y009458D01*
X006408Y009501D01*
X006461Y009540D01*
X006516Y009577D01*
X006573Y009610D01*
X006632Y009639D01*
X006692Y009665D01*
X006754Y009687D01*
X006817Y009706D01*
X006881Y009720D01*
X006946Y009731D01*
X007012Y009738D01*
X007078Y009741D01*
X007143Y009740D01*
X007209Y009735D01*
X007274Y009726D01*
X007339Y009713D01*
X007402Y009697D01*
X007465Y009677D01*
X007526Y009652D01*
X007586Y009625D01*
X007644Y009594D01*
X007700Y009559D01*
X007754Y009521D01*
X007805Y009480D01*
X007854Y009436D01*
X007900Y009389D01*
X007944Y009340D01*
X007984Y009288D01*
X008021Y009233D01*
X008055Y009177D01*
X008085Y009118D01*
X008112Y009058D01*
X008135Y008997D01*
X008154Y008934D01*
X008170Y008870D01*
X008182Y008805D01*
X008190Y008740D01*
X008194Y008674D01*
X008194Y008608D01*
X008190Y008542D01*
X008182Y008477D01*
X008170Y008412D01*
X008154Y008348D01*
X008135Y008285D01*
X008112Y008224D01*
X008085Y008164D01*
X008055Y008105D01*
X008021Y008049D01*
X007984Y007994D01*
X007944Y007942D01*
X007900Y007893D01*
X007854Y007846D01*
X007805Y007802D01*
X007754Y007761D01*
X007700Y007723D01*
X007644Y007688D01*
X007586Y007657D01*
X007526Y007630D01*
X007465Y007605D01*
X007402Y007585D01*
X007339Y007569D01*
X007274Y007556D01*
X007209Y007547D01*
X007143Y007542D01*
X007078Y007541D01*
X007012Y007544D01*
X006946Y007551D01*
X006881Y007562D01*
X006817Y007576D01*
X006754Y007595D01*
X006692Y007617D01*
X006632Y007643D01*
X006573Y007672D01*
X006516Y007705D01*
X006461Y007742D01*
X006408Y007781D01*
X006358Y007824D01*
X006310Y007869D01*
X006266Y007917D01*
X006224Y007968D01*
X006185Y008021D01*
X006150Y008077D01*
X006118Y008134D01*
X006089Y008194D01*
X006064Y008254D01*
X006043Y008317D01*
X006025Y008380D01*
X006012Y008445D01*
X006002Y008510D01*
X005996Y008575D01*
X005994Y008641D01*
D11*
X005417Y004962D03*
X005417Y004647D03*
X005417Y004332D03*
X005417Y004017D03*
X005417Y003703D03*
X005417Y003388D03*
X005417Y003073D03*
X005417Y002758D03*
X008797Y002758D03*
X008797Y003073D03*
X008797Y003388D03*
X008797Y003703D03*
X008797Y004017D03*
X008797Y004332D03*
X008797Y004647D03*
X008797Y004962D03*
D12*
X008209Y005550D03*
X007894Y005550D03*
X007579Y005550D03*
X007264Y005550D03*
X006949Y005550D03*
X006634Y005550D03*
X006319Y005550D03*
X006004Y005550D03*
X006004Y002170D03*
X006319Y002170D03*
X006634Y002170D03*
X006949Y002170D03*
X007264Y002170D03*
X007579Y002170D03*
X007894Y002170D03*
X008209Y002170D03*
D13*
X010726Y002053D03*
X010726Y001265D03*
X010726Y002840D03*
X004492Y001990D03*
X003705Y001990D03*
X002917Y001990D03*
D14*
X004744Y009197D03*
X004370Y009985D03*
X005118Y009985D03*
D15*
X003579Y005791D03*
X002910Y005791D03*
D16*
X011309Y004411D03*
X011309Y003702D03*
D17*
X006872Y001448D03*
X006163Y001448D03*
X005437Y001049D03*
X004728Y001049D03*
D18*
X007683Y011875D03*
X008437Y011903D03*
D19*
X008545Y010891D02*
X007912Y010891D01*
X005238Y010891D02*
X004605Y010891D01*
D20*
X010854Y008698D02*
X010910Y008642D01*
X010726Y008641D01*
X010597Y008769D01*
X010596Y008953D01*
X010724Y009082D01*
X010908Y009083D01*
X011037Y008955D01*
X011038Y008771D01*
X010910Y008642D01*
X010875Y008724D01*
X010760Y008724D01*
X010679Y008804D01*
X010679Y008919D01*
X010759Y009000D01*
X010874Y009000D01*
X010955Y008920D01*
X010955Y008805D01*
X010875Y008724D01*
X010840Y008808D01*
X010794Y008808D01*
X010763Y008839D01*
X010763Y008885D01*
X010794Y008916D01*
X010840Y008916D01*
X010871Y008885D01*
X010871Y008839D01*
X010840Y008808D01*
X011409Y009256D02*
X011465Y009200D01*
X011281Y009199D01*
X011152Y009327D01*
X011151Y009511D01*
X011279Y009640D01*
X011463Y009641D01*
X011592Y009513D01*
X011593Y009329D01*
X011465Y009200D01*
X011430Y009282D01*
X011315Y009282D01*
X011234Y009362D01*
X011234Y009477D01*
X011314Y009558D01*
X011429Y009558D01*
X011510Y009478D01*
X011510Y009363D01*
X011430Y009282D01*
X011395Y009366D01*
X011349Y009366D01*
X011318Y009397D01*
X011318Y009443D01*
X011349Y009474D01*
X011395Y009474D01*
X011426Y009443D01*
X011426Y009397D01*
X011395Y009366D01*
D21*
X004396Y004812D03*
X002978Y004812D03*
D22*
X003044Y004741D01*
X003744Y004041D01*
X003744Y003641D01*
X003744Y002041D01*
X003705Y001990D01*
X002944Y001941D02*
X002944Y001141D01*
X004644Y001141D01*
X004728Y001049D01*
X004544Y001541D02*
X004544Y001941D01*
X004492Y001990D01*
X004544Y001541D02*
X006144Y001541D01*
X006163Y001448D01*
X006004Y002170D02*
X006044Y002241D01*
X006044Y004241D01*
X005844Y003941D02*
X005844Y002641D01*
X005544Y002341D01*
X005344Y003641D02*
X005417Y003703D01*
X005344Y003641D02*
X003744Y003641D01*
X004444Y004041D02*
X004444Y004741D01*
X004396Y004812D01*
X004344Y004841D01*
X004344Y005041D01*
X003644Y005741D01*
X003579Y005791D01*
X002944Y005741D02*
X002944Y004841D01*
X002978Y004812D01*
X002944Y005741D02*
X002910Y005791D01*
X002944Y005841D01*
X002944Y008541D01*
X004344Y009941D01*
X004370Y009985D01*
X004744Y010741D02*
X004744Y009197D01*
X005144Y009941D02*
X005118Y009985D01*
X005144Y009941D02*
X005644Y009441D01*
X006144Y009941D01*
X005644Y009441D02*
X005644Y005341D01*
X006944Y004041D01*
X006944Y003041D01*
X007544Y002441D01*
X007544Y002241D01*
X007579Y002170D01*
X007844Y002241D02*
X007844Y002541D01*
X007144Y003241D01*
X007144Y004441D01*
X006944Y004941D02*
X006944Y005541D01*
X006949Y005550D01*
X006634Y005550D02*
X006644Y005641D01*
X006644Y005841D01*
X007744Y006941D01*
X007444Y006041D02*
X008544Y006041D01*
X008544Y010141D01*
X009144Y010741D01*
X009144Y012841D01*
X008444Y011941D02*
X008437Y011903D01*
X008444Y011941D02*
X008444Y014941D01*
X009644Y014941D01*
X009944Y014641D01*
X009944Y002841D01*
X010644Y002141D01*
X010726Y002053D01*
X010726Y002840D02*
X010744Y002841D01*
X010744Y003141D01*
X011244Y003641D01*
X011309Y003702D01*
X011309Y004411D02*
X011344Y004441D01*
X011344Y009341D01*
X011372Y009420D01*
X009544Y006241D02*
X009544Y014541D01*
X007744Y011841D02*
X007683Y011875D01*
X007744Y011841D02*
X008144Y011441D01*
X008144Y010941D01*
X008229Y010891D01*
X008944Y007141D02*
X008944Y005741D01*
X007844Y004641D01*
X007844Y003541D01*
X008144Y003241D01*
X008144Y002241D01*
X008209Y002170D01*
X008644Y002341D02*
X008344Y002641D01*
X008344Y003041D01*
X008744Y003041D01*
X008797Y003073D01*
X008797Y002758D02*
X008844Y002741D01*
X009044Y002541D01*
X009044Y002341D01*
X008644Y002341D02*
X008644Y002041D01*
X007894Y002170D02*
X007844Y002241D01*
X006944Y001541D02*
X006872Y001448D01*
X006944Y001541D02*
X009444Y001541D01*
X009444Y004241D01*
X009044Y004641D01*
X008844Y004641D01*
X008797Y004647D01*
X008844Y004941D02*
X008797Y004962D01*
X008844Y004941D02*
X009044Y004941D01*
X009644Y004341D01*
X009644Y001041D01*
X005444Y001041D01*
X005437Y001049D01*
X005444Y003941D02*
X005417Y004017D01*
X005344Y004041D01*
X004444Y004041D01*
X004844Y004641D02*
X004844Y006241D01*
X005244Y006541D02*
X005244Y005141D01*
X005344Y005041D01*
X005417Y004962D01*
X005417Y004647D02*
X005344Y004641D01*
X004844Y004641D01*
X005444Y003941D02*
X005844Y003941D01*
X006004Y005550D02*
X006044Y005641D01*
X006044Y006541D01*
X006344Y006141D02*
X006744Y006541D01*
X006344Y006141D02*
X006344Y005641D01*
X006319Y005550D01*
X007264Y005550D02*
X007344Y005641D01*
X007344Y005941D01*
X007444Y006041D01*
X007579Y005550D02*
X007644Y005541D01*
X007644Y004941D01*
X008244Y003941D02*
X008244Y003641D01*
X008244Y003941D02*
X008744Y003941D01*
X008797Y004017D01*
X009344Y006041D02*
X009544Y006241D01*
X004921Y010891D02*
X004844Y010841D01*
X004744Y010741D01*
X002917Y001990D02*
X002944Y001941D01*
D23*
X005544Y002341D03*
X006044Y004241D03*
X006944Y004941D03*
X007144Y004441D03*
X007644Y004941D03*
X008244Y003641D03*
X009044Y002341D03*
X008644Y002041D03*
X009344Y006041D03*
X008944Y007141D03*
X007744Y006941D03*
X006744Y006541D03*
X006044Y006541D03*
X005244Y006541D03*
X004844Y006241D03*
X006144Y009941D03*
X009144Y012841D03*
X009544Y014541D03*
M02*
