G75*
G70*
%OFA0B0*%
%FSLAX24Y24*%
%IPPOS*%
%LPD*%
%AMOC8*
5,1,8,0,0,1.08239X$1,22.5*
%
%ADD10C,0.0714*%
%ADD11R,0.0867X0.0356*%
%ADD12R,0.0828X0.0513*%
%ADD13C,0.0635*%
%ADD14R,0.0513X0.0671*%
%ADD15C,0.0714*%
%ADD16C,0.0127*%
%ADD17C,0.2280*%
D10*
X002917Y001990D03*
X003705Y001990D03*
X004492Y001990D03*
X010726Y002053D03*
X010726Y001265D03*
X010726Y002840D03*
D11*
X009624Y006495D03*
X009624Y007086D03*
X009624Y007677D03*
X009624Y008267D03*
X009624Y008858D03*
X009624Y009448D03*
X009624Y010039D03*
X009624Y010629D03*
X010547Y012836D03*
X010547Y013427D03*
X010547Y014017D03*
X010547Y014608D03*
X003654Y014608D03*
X003654Y014017D03*
X003654Y013427D03*
X003654Y012836D03*
D12*
X002335Y012068D03*
X002335Y015375D03*
X010943Y011397D03*
X011866Y012068D03*
X011866Y015375D03*
X010943Y005728D03*
D13*
X008437Y011903D03*
X007683Y011875D03*
D14*
X007244Y007138D03*
X006244Y007138D03*
X005244Y007138D03*
X004244Y007138D03*
X003244Y007138D03*
X003244Y003044D03*
X004244Y003044D03*
X005244Y003044D03*
X006244Y003044D03*
X007244Y003044D03*
X008244Y003044D03*
X008244Y007138D03*
D15*
X008545Y010891D02*
X007912Y010891D01*
X005238Y010891D02*
X004605Y010891D01*
D16*
X010859Y008673D02*
X010923Y008609D01*
X010713Y008608D01*
X010564Y008756D01*
X010563Y008966D01*
X010711Y009115D01*
X010921Y009116D01*
X011070Y008968D01*
X011071Y008758D01*
X010923Y008609D01*
X010884Y008704D01*
X010752Y008704D01*
X010659Y008795D01*
X010659Y008927D01*
X010750Y009020D01*
X010882Y009020D01*
X010975Y008929D01*
X010975Y008797D01*
X010884Y008704D01*
X010843Y008800D01*
X010792Y008799D01*
X010755Y008836D01*
X010754Y008887D01*
X010791Y008924D01*
X010842Y008925D01*
X010879Y008888D01*
X010880Y008837D01*
X010843Y008800D01*
X011414Y009231D02*
X011478Y009167D01*
X011268Y009166D01*
X011119Y009314D01*
X011118Y009524D01*
X011266Y009673D01*
X011476Y009674D01*
X011625Y009526D01*
X011626Y009316D01*
X011478Y009167D01*
X011439Y009262D01*
X011307Y009262D01*
X011214Y009353D01*
X011214Y009485D01*
X011305Y009578D01*
X011437Y009578D01*
X011530Y009487D01*
X011530Y009355D01*
X011439Y009262D01*
X011398Y009358D01*
X011347Y009357D01*
X011310Y009394D01*
X011309Y009445D01*
X011346Y009482D01*
X011397Y009483D01*
X011434Y009446D01*
X011435Y009395D01*
X011398Y009358D01*
D17*
X007094Y008641D03*
M02*
