G75*
G70*
%OFA0B0*%
%FSLAX24Y24*%
%IPPOS*%
%LPD*%
%AMOC8*
5,1,8,0,0,1.08239X$1,22.5*
%
%ADD10C,0.0634*%
%ADD11R,0.0787X0.0276*%
%ADD12R,0.0748X0.0433*%
%ADD13C,0.0555*%
%ADD14R,0.0433X0.0591*%
%ADD15C,0.0634*%
%ADD16C,0.0111*%
%ADD17C,0.0080*%
%ADD18C,0.0400*%
%ADD19C,0.0160*%
D10*
X002917Y001990D03*
X003705Y001990D03*
X004492Y001990D03*
X010726Y002053D03*
X010726Y001265D03*
X010726Y002840D03*
D11*
X009624Y006495D03*
X009624Y007086D03*
X009624Y007677D03*
X009624Y008267D03*
X009624Y008858D03*
X009624Y009448D03*
X009624Y010039D03*
X009624Y010629D03*
X010547Y012836D03*
X010547Y013427D03*
X010547Y014017D03*
X010547Y014608D03*
X003654Y014608D03*
X003654Y014017D03*
X003654Y013427D03*
X003654Y012836D03*
D12*
X002335Y012068D03*
X002335Y015375D03*
X010943Y011397D03*
X011866Y012068D03*
X011866Y015375D03*
X010943Y005728D03*
D13*
X008437Y011903D03*
X007683Y011875D03*
D14*
X007244Y007138D03*
X006244Y007138D03*
X005244Y007138D03*
X004244Y007138D03*
X003244Y007138D03*
X003244Y003044D03*
X004244Y003044D03*
X005244Y003044D03*
X006244Y003044D03*
X007244Y003044D03*
X008244Y003044D03*
X008244Y007138D03*
D15*
X008545Y010891D02*
X007912Y010891D01*
X005238Y010891D02*
X004605Y010891D01*
D16*
X010854Y008698D02*
X010910Y008642D01*
X010726Y008641D01*
X010597Y008769D01*
X010596Y008953D01*
X010724Y009082D01*
X010908Y009083D01*
X011037Y008955D01*
X011038Y008771D01*
X010910Y008642D01*
X010875Y008724D01*
X010760Y008724D01*
X010679Y008804D01*
X010679Y008919D01*
X010759Y009000D01*
X010874Y009000D01*
X010955Y008920D01*
X010955Y008805D01*
X010875Y008724D01*
X010840Y008808D01*
X010794Y008808D01*
X010763Y008839D01*
X010763Y008885D01*
X010794Y008916D01*
X010840Y008916D01*
X010871Y008885D01*
X010871Y008839D01*
X010840Y008808D01*
X011409Y009256D02*
X011465Y009200D01*
X011281Y009199D01*
X011152Y009327D01*
X011151Y009511D01*
X011279Y009640D01*
X011463Y009641D01*
X011592Y009513D01*
X011593Y009329D01*
X011465Y009200D01*
X011430Y009282D01*
X011315Y009282D01*
X011234Y009362D01*
X011234Y009477D01*
X011314Y009558D01*
X011429Y009558D01*
X011510Y009478D01*
X011510Y009363D01*
X011430Y009282D01*
X011395Y009366D01*
X011349Y009366D01*
X011318Y009397D01*
X011318Y009443D01*
X011349Y009474D01*
X011395Y009474D01*
X011426Y009443D01*
X011426Y009397D01*
X011395Y009366D01*
D17*
X011372Y009420D02*
X011344Y009441D01*
X010144Y009441D01*
X010144Y010341D01*
X008744Y010341D01*
X008244Y010841D01*
X008229Y010891D01*
X007844Y011341D02*
X005344Y011341D01*
X004944Y010941D01*
X004921Y010891D01*
X006144Y009941D02*
X009544Y009941D01*
X009624Y010039D01*
X009624Y009448D02*
X009644Y009441D01*
X010144Y009441D01*
X009644Y008841D02*
X009624Y008858D01*
X009644Y008841D02*
X010744Y008841D01*
X010817Y008862D01*
X010844Y008841D01*
X011444Y008841D01*
X011844Y008841D01*
X011844Y009541D01*
X011144Y010241D01*
X010444Y010241D01*
X010444Y011741D01*
X011144Y011741D01*
X011144Y013541D01*
X010944Y013741D01*
X010844Y013741D01*
X010644Y013941D01*
X010547Y014017D01*
X009544Y014541D02*
X009544Y014608D01*
X009144Y012841D02*
X009144Y012836D01*
X008437Y011903D02*
X008344Y011841D01*
X007844Y011341D01*
X008344Y011841D02*
X009544Y010641D01*
X009624Y010629D01*
X009624Y008267D02*
X009644Y008241D01*
X010344Y008241D01*
X010344Y006441D01*
X008444Y004541D01*
X007244Y004541D01*
X007144Y004441D01*
X007044Y004041D02*
X006544Y004541D01*
X006544Y006141D01*
X007844Y006141D01*
X008344Y006641D01*
X009044Y006641D01*
X009444Y007041D01*
X009544Y007041D01*
X009624Y007086D01*
X009544Y007641D02*
X009444Y007641D01*
X008944Y007141D01*
X009544Y007641D02*
X009624Y007677D01*
X009624Y006495D02*
X009544Y006441D01*
X008444Y006441D01*
X006944Y004941D01*
X007644Y004941D02*
X008744Y006041D01*
X009344Y006041D01*
X008244Y007041D02*
X008244Y007138D01*
X008244Y007041D02*
X007844Y007041D01*
X007744Y006941D01*
X007244Y007041D02*
X007244Y007138D01*
X007244Y007041D02*
X006744Y006541D01*
X006244Y007041D02*
X006244Y007138D01*
X006244Y007041D02*
X006044Y007041D01*
X006044Y006541D01*
X005244Y006541D02*
X005244Y007138D01*
X004844Y007041D02*
X004244Y007041D01*
X004244Y007138D01*
X004844Y007041D02*
X004844Y006241D01*
X003244Y007041D02*
X006044Y004241D01*
X006244Y003044D02*
X006244Y003041D01*
X007244Y003041D01*
X007244Y003044D01*
X007244Y003041D02*
X008244Y003041D01*
X008244Y003044D01*
X008244Y003641D01*
X009044Y004041D02*
X007044Y004041D01*
X006244Y003041D02*
X005244Y003041D01*
X005244Y003044D01*
X005244Y003041D02*
X004244Y003041D01*
X004244Y003044D01*
X004244Y003041D02*
X003744Y003041D01*
X003744Y002041D01*
X003705Y001990D01*
X003744Y003041D02*
X003244Y003041D01*
X003244Y003044D01*
X003244Y003141D01*
X002844Y003141D01*
X002844Y012741D01*
X003244Y013141D01*
X003444Y013141D01*
X003644Y013341D01*
X003654Y013427D01*
X003244Y007138D02*
X003244Y007041D01*
X005544Y002341D02*
X005844Y002041D01*
X008644Y002041D01*
X008744Y001941D01*
X009144Y001941D01*
X011444Y004241D01*
X011444Y008841D01*
X009044Y004041D02*
X009044Y002341D01*
D18*
X009044Y002341D03*
X008644Y002041D03*
X008244Y003641D03*
X007644Y004941D03*
X007144Y004441D03*
X006944Y004941D03*
X006044Y004241D03*
X005544Y002341D03*
X004844Y006241D03*
X005244Y006541D03*
X006044Y006541D03*
X006744Y006541D03*
X007744Y006941D03*
X008944Y007141D03*
X009344Y006041D03*
X006144Y009941D03*
X009144Y012841D03*
X009544Y014541D03*
D19*
X009544Y014608D02*
X010547Y014608D01*
X010547Y014017D02*
X003654Y014017D01*
X003654Y013427D02*
X010547Y013427D01*
X010547Y012836D02*
X009144Y012836D01*
X003654Y012836D01*
X003654Y014608D02*
X009544Y014608D01*
M02*
